<svg version="1.1" id="Layer_1" xmlns="http://www.w3.org/2000/svg" xmlns:xlink="http://www.w3.org/1999/xlink" x="0px" y="0px"
	 width="100%" viewBox="0 0 546 437" enable-background="new 0 0 546 437" xml:space="preserve">
<path fill="#010101" opacity="1.000000" stroke="none" 
	d="
M276.000000,438.000000 
	C184.000015,438.000000 92.500046,438.000000 1.000049,438.000000 
	C1.000033,292.333405 1.000033,146.666779 1.000016,1.000127 
	C182.999893,1.000085 364.999786,1.000085 546.999756,1.000042 
	C546.999878,146.666534 546.999878,292.333069 546.999939,437.999817 
	C456.833344,438.000000 366.666656,438.000000 276.000000,438.000000 
M287.651825,307.664551 
	C287.240082,306.707733 286.828369,305.750916 286.272003,304.082367 
	C286.112152,303.134491 285.952301,302.186615 285.865509,300.846130 
	C285.579620,300.905121 285.293701,300.964142 284.136627,301.061005 
	C281.721497,301.061005 279.306366,301.061005 276.595795,301.061005 
	C279.355347,317.407501 281.994141,333.038635 284.328369,348.982697 
	C284.567169,349.014404 284.805939,349.046112 285.640259,349.228241 
	C286.047028,349.275269 286.453796,349.322266 287.515045,349.810059 
	C289.960754,349.477264 292.406464,349.144470 295.071106,348.112549 
	C295.164215,347.140991 295.257355,346.169434 295.975800,345.020660 
	C296.043671,343.678467 296.111542,342.336304 296.165253,340.294739 
	C296.229797,339.599030 296.294342,338.903351 297.010803,338.217468 
	C297.799133,338.814819 298.587494,339.412170 299.523163,340.564331 
	C299.557190,340.945099 299.591217,341.325867 299.295502,342.178894 
	C299.523987,342.457764 299.752502,342.736664 300.165527,343.813873 
	C300.388062,345.569031 300.610565,347.324158 300.832092,349.071503 
	C304.435181,349.071503 307.534576,349.071503 310.915527,349.071503 
	C313.688202,333.107117 316.425323,317.347443 319.203949,301.348816 
	C315.758331,301.348816 312.862488,301.348816 309.837860,301.348816 
	C309.102386,306.009857 308.407196,310.415680 307.066620,315.000549 
	C306.162109,316.263245 305.257629,317.525940 304.246521,318.097595 
	C304.215973,317.399414 304.185425,316.701263 304.653351,315.587311 
	C304.220337,314.323517 303.787323,313.059723 303.246918,311.103149 
	C303.216248,310.403137 303.185547,309.703094 303.653412,308.587128 
	C303.219269,307.323853 302.785126,306.060608 302.253052,304.082825 
	C302.070831,303.146667 301.888611,302.210480 301.834900,300.906189 
	C301.569092,300.959167 301.303253,301.012146 300.164978,301.066620 
	C298.100708,301.066620 296.036438,301.066620 293.930847,301.066620 
	C293.142609,306.113586 292.459320,310.488342 291.106201,314.957336 
	C290.373840,314.654175 289.397400,314.546204 288.963837,314.004089 
	C288.233490,313.090851 287.847656,311.902100 287.210297,310.127106 
	C287.188477,309.418182 287.166656,308.709229 287.651825,307.664551 
M308.393799,128.695389 
	C294.960510,110.490341 281.527222,92.285286 268.093903,74.080238 
	C267.719269,74.278168 267.344635,74.476089 266.970001,74.674019 
	C266.970001,76.475548 266.970001,78.277077 266.970001,80.078606 
	C266.970032,98.908241 266.862579,117.738976 267.056641,136.566620 
	C267.097656,140.545990 266.111450,143.289978 262.975830,145.961349 
	C254.355713,153.305252 246.102493,161.079636 237.698364,168.677353 
	C236.045517,170.171616 234.366913,171.637375 231.895004,173.830734 
	C231.895004,168.358826 231.895004,164.082474 231.895004,159.806122 
	C231.895004,155.598969 231.895004,151.391800 231.895004,147.184647 
	C225.304657,152.750580 218.767776,157.979767 215.001816,164.750229 
	C212.564407,169.132187 214.165695,175.767609 213.986084,181.394165 
	C213.932953,183.058807 214.332092,184.826767 213.895706,186.369690 
	C213.224518,188.742691 212.596130,191.583359 210.934967,193.149277 
	C196.630264,206.633774 182.093658,219.872177 167.642609,233.201752 
	C166.751007,234.024124 165.997849,234.996567 164.286469,236.886002 
	C171.838593,236.886002 178.189590,236.886002 184.558258,236.886002 
	C184.558258,245.003250 184.558258,252.425613 184.558258,259.759430 
	C172.701889,264.862213 160.608444,268.974060 150.770493,277.910950 
	C233.774612,258.292114 316.461029,258.050934 399.355469,278.217712 
	C386.233582,267.002106 370.185883,261.613678 354.504761,256.175537 
	C354.504761,247.953934 354.504761,240.199265 354.504761,231.982346 
	C360.051605,231.982346 365.283722,231.982346 371.131531,231.982346 
	C367.947998,226.663361 365.167969,221.953445 362.326172,217.281128 
	C345.224945,189.164368 328.109558,161.056229 310.972260,132.283264 
	C310.311279,131.192337 309.650330,130.101395 308.393799,128.695389 
M179.876480,323.580444 
	C179.876480,316.174072 179.876480,308.767670 179.876480,301.882263 
	C171.644257,298.809570 166.946182,302.332092 163.541611,310.224121 
	C160.061584,302.130005 155.043030,299.014282 147.513016,301.565430 
	C147.513016,317.318604 147.513016,333.071777 147.513016,349.074371 
	C150.746490,349.074371 153.805420,349.074371 157.133713,349.074371 
	C157.133713,341.946289 157.124115,335.141083 157.136368,328.335938 
	C157.149094,321.261169 157.726959,320.908112 163.989700,324.268494 
	C165.496445,322.538055 167.033173,320.773163 168.569885,319.008301 
	C169.018967,319.159790 169.468063,319.311249 169.917145,319.462738 
	C169.917145,329.295288 169.917145,339.127838 169.917145,349.132629 
	C173.635544,349.132629 176.554871,349.132629 179.875504,349.132629 
	C179.875504,340.759552 179.875504,332.659912 179.876480,323.580444 
M231.300369,343.298950 
	C231.300369,345.208923 231.300369,347.118866 231.300369,349.336182 
	C236.605194,349.336182 241.248398,349.423370 245.887100,349.315857 
	C252.979538,349.151489 259.000519,343.478638 259.221161,336.414124 
	C259.460052,328.766357 259.435760,321.101471 259.234833,313.451721 
	C259.077637,307.466827 253.799713,301.552002 248.081299,301.151917 
	C242.667389,300.773193 237.206192,301.070526 231.300385,301.070526 
	C231.300385,315.135498 231.300385,328.740173 231.300369,343.298950 
M355.655090,315.139038 
	C354.801880,310.468475 353.948639,305.797913 353.136230,301.350708 
	C348.851929,301.350708 345.240723,301.350708 341.434082,301.350708 
	C338.565460,317.359070 335.740875,333.121643 332.882996,349.070007 
	C336.371857,349.070007 339.132874,349.070007 341.897400,349.070007 
	C342.496521,347.116272 343.023621,345.397278 343.559906,343.648438 
	C346.117981,343.648438 348.517456,343.648438 350.928711,343.648438 
	C351.458344,345.657806 351.911560,347.377350 352.357574,349.069641 
	C355.380249,349.069641 358.143646,349.069641 361.458527,349.069641 
	C359.572845,337.808350 357.744141,326.887115 355.655090,315.139038 
M375.085693,302.334320 
	C379.845276,317.566467 386.989685,332.307343 383.682587,349.071167 
	C387.451447,349.071167 390.200806,349.071167 393.974304,349.071167 
	C390.148743,331.820221 398.060944,316.908051 402.742310,301.285858 
	C393.429230,300.772705 393.463593,300.782166 391.247742,308.838531 
	C390.737671,310.693024 389.903412,312.458344 389.218353,314.264709 
	C388.762817,314.195312 388.307281,314.125885 387.851715,314.056488 
	C387.265686,312.032898 386.667175,310.012848 386.095795,307.985138 
	C383.871185,300.090668 383.776367,300.032684 375.085693,302.334320 
M210.243195,324.500549 
	C210.243195,316.762634 210.243195,309.024719 210.243195,301.263733 
	C206.717300,301.263733 203.926636,301.263733 200.936676,301.263733 
	C200.936676,317.225861 200.936676,332.991028 200.936676,348.905823 
	C204.130234,348.905823 207.142365,348.905823 210.243103,348.905823 
	C210.243103,340.822418 210.243103,333.161499 210.243195,324.500549 
z"/>
<path fill="#FBFBFB" opacity="1.000000" stroke="none" 
	d="
M310.998932,132.945190 
	C328.109558,161.056229 345.224945,189.164368 362.326172,217.281128 
	C365.167969,221.953445 367.947998,226.663361 371.131531,231.982346 
	C365.283722,231.982346 360.051605,231.982346 354.504761,231.982346 
	C354.504761,240.199265 354.504761,247.953934 354.504761,256.175537 
	C370.185883,261.613678 386.233582,267.002106 399.355469,278.217712 
	C316.461029,258.050934 233.774612,258.292114 150.770493,277.910950 
	C160.608444,268.974060 172.701889,264.862213 184.558258,259.759430 
	C184.558258,252.425613 184.558258,245.003250 184.558258,236.886002 
	C178.189590,236.886002 171.838593,236.886002 164.286469,236.886002 
	C165.997849,234.996567 166.751007,234.024124 167.642609,233.201752 
	C182.093658,219.872177 196.630264,206.633774 210.934967,193.149277 
	C212.596130,191.583359 213.224518,188.742691 213.895706,186.369690 
	C214.332092,184.826767 213.932953,183.058807 213.986084,181.394165 
	C214.165695,175.767609 212.564407,169.132187 215.001816,164.750229 
	C218.767776,157.979767 225.304657,152.750580 231.895004,147.184647 
	C231.895004,151.391800 231.895004,155.598969 231.895004,159.806122 
	C231.895004,164.082474 231.895004,168.358826 231.895004,173.830734 
	C234.366913,171.637375 236.045517,170.171616 237.698364,168.677353 
	C246.102493,161.079636 254.355713,153.305252 262.975830,145.961349 
	C266.111450,143.289978 267.097656,140.545990 267.056641,136.566620 
	C266.862579,117.738976 266.970032,98.908241 266.970001,80.078606 
	C266.970001,78.277077 266.970001,76.475548 266.970001,74.674019 
	C267.344635,74.476089 267.719269,74.278168 268.093903,74.080238 
	C281.527222,92.285286 294.960510,110.490341 308.750031,129.231598 
	C308.238983,131.018524 307.589905,132.528778 306.465759,133.474060 
	C302.132690,137.117752 297.858795,140.899261 293.156006,144.015472 
	C289.026794,146.751602 287.887482,150.068924 288.032196,154.840118 
	C288.370483,165.993149 288.140137,177.163452 288.140106,188.326752 
	C288.140076,206.811859 288.140076,225.296951 288.140076,244.080765 
	C295.717285,244.819336 303.074432,245.536469 310.854004,246.294769 
	C310.854004,244.015656 310.851929,242.209869 310.854340,240.404083 
	C310.902222,204.584457 310.950623,168.764816 310.998932,132.945190 
z"/>
<path fill="#070809" opacity="1.000000" stroke="none" 
	d="
M310.985596,132.614227 
	C310.950623,168.764816 310.902222,204.584457 310.854340,240.404083 
	C310.851929,242.209869 310.854004,244.015656 310.854004,246.294769 
	C303.074432,245.536469 295.717285,244.819336 288.140076,244.080765 
	C288.140076,225.296951 288.140076,206.811859 288.140106,188.326752 
	C288.140137,177.163452 288.370483,165.993149 288.032196,154.840118 
	C287.887482,150.068924 289.026794,146.751602 293.156006,144.015472 
	C297.858795,140.899261 302.132690,137.117752 306.465759,133.474060 
	C307.589905,132.528778 308.238983,131.018524 309.047821,129.389130 
	C309.650330,130.101395 310.311279,131.192337 310.985596,132.614227 
z"/>
<path fill="#F2F3F4" opacity="1.000000" stroke="none" 
	d="
M284.632935,348.669769 
	C281.994141,333.038635 279.355347,317.407501 276.595795,301.061005 
	C279.306366,301.061005 281.721497,301.061005 284.739807,301.200043 
	C285.343018,301.339081 285.792450,301.238739 285.792450,301.238739 
	C285.952301,302.186615 286.112152,303.134491 286.238770,304.778564 
	C286.518646,306.316620 286.831757,307.158447 287.144836,308.000305 
	C287.166656,308.709229 287.188477,309.418182 287.129883,310.896332 
	C287.730988,316.539093 288.412537,321.412628 289.094086,326.286163 
	C289.560638,326.294861 290.027191,326.303528 290.493744,326.312225 
	C290.921173,322.495850 291.348602,318.679504 291.776062,314.863129 
	C292.459320,310.488342 293.142609,306.113586 293.930847,301.066620 
	C296.036438,301.066620 298.100708,301.066620 300.733582,301.229706 
	C301.302185,301.392792 301.706360,301.274323 301.706360,301.274323 
	C301.888611,302.210480 302.070831,303.146667 302.172668,304.801331 
	C302.446503,306.680908 302.800690,307.842010 303.154877,309.003082 
	C303.185547,309.703094 303.216248,310.403137 303.169922,311.810547 
	C303.446930,313.679626 303.800903,314.841370 304.154877,316.003082 
	C304.185425,316.701263 304.215973,317.399414 304.173431,318.847412 
	C304.489868,322.389130 304.879364,325.181061 305.268890,327.972992 
	C305.691711,327.974213 306.114532,327.975403 306.537384,327.976593 
	C306.928925,323.591583 307.320465,319.206543 307.712006,314.821533 
	C308.407196,310.415680 309.102386,306.009857 309.837860,301.348816 
	C312.862488,301.348816 315.758331,301.348816 319.203949,301.348816 
	C316.425323,317.347443 313.688202,333.107117 310.915527,349.071503 
	C307.534576,349.071503 304.435181,349.071503 300.832092,349.071503 
	C300.610565,347.324158 300.388062,345.569031 300.154785,343.169128 
	C299.971130,342.251831 299.798187,341.979218 299.625214,341.706635 
	C299.591217,341.325867 299.557190,340.945099 299.641663,339.989319 
	C299.229767,335.922729 298.699371,332.431152 298.168945,328.939575 
	C297.815918,328.969604 297.462891,328.999634 297.109894,329.029694 
	C296.859558,332.089020 296.609222,335.148315 296.358887,338.207642 
	C296.294342,338.903351 296.229797,339.599030 295.903564,340.905731 
	C295.544739,342.743774 295.447601,343.970825 295.350464,345.197876 
	C295.257355,346.169434 295.164215,347.140991 294.518860,348.493500 
	C291.597961,349.039398 289.229248,349.204346 286.860565,349.369263 
	C286.453796,349.322266 286.047028,349.275269 285.306824,348.983032 
	C284.973358,348.737793 284.632935,348.669769 284.632935,348.669769 
z"/>
<path fill="#EAEAEC" opacity="1.000000" stroke="none" 
	d="
M179.875992,324.070343 
	C179.875504,332.659912 179.875504,340.759552 179.875504,349.132629 
	C176.554871,349.132629 173.635544,349.132629 169.917145,349.132629 
	C169.917145,339.127838 169.917145,329.295288 169.917145,319.462738 
	C169.468063,319.311249 169.018967,319.159790 168.569885,319.008301 
	C167.033173,320.773163 165.496445,322.538055 163.989700,324.268494 
	C157.726959,320.908112 157.149094,321.261169 157.136368,328.335938 
	C157.124115,335.141083 157.133713,341.946289 157.133713,349.074371 
	C153.805420,349.074371 150.746490,349.074371 147.513016,349.074371 
	C147.513016,333.071777 147.513016,317.318604 147.514496,301.564270 
	C155.043030,299.014282 160.061584,302.130005 163.541611,310.224121 
	C166.946182,302.332092 171.644257,298.809570 179.876480,301.882263 
	C179.876480,308.767670 179.876480,316.174072 179.875992,324.070343 
z"/>
<path fill="#EEEEF0" opacity="1.000000" stroke="none" 
	d="
M231.300385,342.821899 
	C231.300385,328.740173 231.300385,315.135498 231.300385,301.070526 
	C237.206192,301.070526 242.667389,300.773193 248.081299,301.151917 
	C253.799713,301.552002 259.077637,307.466827 259.234833,313.451721 
	C259.435760,321.101471 259.460052,328.766357 259.221161,336.414124 
	C259.000519,343.478638 252.979538,349.151489 245.887100,349.315857 
	C241.248398,349.423370 236.605194,349.336182 231.300369,349.336182 
	C231.300369,347.118866 231.300369,345.208923 231.300385,342.821899 
M250.176849,334.045135 
	C250.179840,328.555084 250.236664,323.064392 250.172058,317.575134 
	C250.092758,310.838745 247.755997,309.136505 241.253571,310.856079 
	C241.253571,320.592285 241.253571,330.301086 241.253571,339.962860 
	C246.049347,340.959961 249.230042,339.893280 250.176849,334.045135 
z"/>
<path fill="#F2F2F3" opacity="1.000000" stroke="none" 
	d="
M355.785248,315.552460 
	C357.744141,326.887115 359.572845,337.808350 361.458527,349.069641 
	C358.143646,349.069641 355.380249,349.069641 352.357574,349.069641 
	C351.911560,347.377350 351.458344,345.657806 350.928711,343.648438 
	C348.517456,343.648438 346.117981,343.648438 343.559906,343.648438 
	C343.023621,345.397278 342.496521,347.116272 341.897400,349.070007 
	C339.132874,349.070007 336.371857,349.070007 332.882996,349.070007 
	C335.740875,333.121643 338.565460,317.359070 341.434082,301.350708 
	C345.240723,301.350708 348.851929,301.350708 353.136230,301.350708 
	C353.948639,305.797913 354.801880,310.468475 355.785248,315.552460 
M344.902954,332.731293 
	C344.779236,333.687561 344.655487,334.643799 344.507141,335.790497 
	C346.297028,335.790497 347.869659,335.790497 349.923981,335.790497 
	C349.336121,332.061340 348.803406,328.681946 348.592163,324.604065 
	C348.314301,322.765533 348.036438,320.926971 347.758575,319.088440 
	C347.401672,319.084106 347.044769,319.079773 346.687866,319.075409 
	C346.497375,321.077972 346.306885,323.080505 346.007996,325.814789 
	C345.718994,327.519318 345.429993,329.223846 344.854126,331.456604 
	C344.916473,331.647034 344.978790,331.837463 344.902954,332.731293 
z"/>
<path fill="#EDEEEF" opacity="1.000000" stroke="none" 
	d="
M375.116608,301.971863 
	C383.776367,300.032684 383.871185,300.090668 386.095795,307.985138 
	C386.667175,310.012848 387.265686,312.032898 387.851715,314.056488 
	C388.307281,314.125885 388.762817,314.195312 389.218353,314.264709 
	C389.903412,312.458344 390.737671,310.693024 391.247742,308.838531 
	C393.463593,300.782166 393.429230,300.772705 402.742310,301.285858 
	C398.060944,316.908051 390.148743,331.820221 393.974304,349.071167 
	C390.200806,349.071167 387.451447,349.071167 383.682587,349.071167 
	C386.989685,332.307343 379.845276,317.566467 375.116608,301.971863 
z"/>
<path fill="#F3F4F4" opacity="1.000000" stroke="none" 
	d="
M210.243149,325.000549 
	C210.243103,333.161499 210.243103,340.822418 210.243103,348.905823 
	C207.142365,348.905823 204.130234,348.905823 200.936676,348.905823 
	C200.936676,332.991028 200.936676,317.225861 200.936676,301.263733 
	C203.926636,301.263733 206.717300,301.263733 210.243195,301.263733 
	C210.243195,309.024719 210.243195,316.762634 210.243149,325.000549 
z"/>
<path fill="#555B68" opacity="1.000000" stroke="none" 
	d="
M291.441101,314.910217 
	C291.348602,318.679504 290.921173,322.495850 290.493744,326.312225 
	C290.027191,326.303528 289.560638,326.294861 289.094086,326.286163 
	C288.412537,321.412628 287.730988,316.539093 287.183167,311.247375 
	C287.847656,311.902100 288.233490,313.090851 288.963837,314.004089 
	C289.397400,314.546204 290.373840,314.654175 291.441101,314.910217 
z"/>
<path fill="#5F6470" opacity="1.000000" stroke="none" 
	d="
M307.389313,314.911041 
	C307.320465,319.206543 306.928925,323.591583 306.537384,327.976593 
	C306.114532,327.975403 305.691711,327.974213 305.268890,327.972992 
	C304.879364,325.181061 304.489868,322.389130 304.226746,319.192932 
	C305.257629,317.525940 306.162109,316.263245 307.389313,314.911041 
z"/>
<path fill="#5E636F" opacity="1.000000" stroke="none" 
	d="
M296.684845,338.212555 
	C296.609222,335.148315 296.859558,332.089020 297.109894,329.029694 
	C297.462891,328.999634 297.815918,328.969604 298.168945,328.939575 
	C298.699371,332.431152 299.229767,335.922729 299.567993,339.711914 
	C298.587494,339.412170 297.799133,338.814819 296.684845,338.212555 
z"/>
<path fill="#5F6470" opacity="1.000000" stroke="none" 
	d="
M303.404144,308.795105 
	C302.800690,307.842010 302.446503,306.680908 302.221649,305.158569 
	C302.785126,306.060608 303.219269,307.323853 303.404144,308.795105 
z"/>
<path fill="#5F6470" opacity="1.000000" stroke="none" 
	d="
M304.404114,315.795197 
	C303.800903,314.841370 303.446930,313.679626 303.223633,312.156921 
	C303.787323,313.059723 304.220337,314.323517 304.404114,315.795197 
z"/>
<path fill="#5E636F" opacity="1.000000" stroke="none" 
	d="
M295.663147,345.109253 
	C295.447601,343.970825 295.544739,342.743774 295.910645,341.255432 
	C296.111542,342.336304 296.043671,343.678467 295.663147,345.109253 
z"/>
<path fill="#5E636F" opacity="1.000000" stroke="none" 
	d="
M287.187805,349.589661 
	C289.229248,349.204346 291.597961,349.039398 294.409424,348.843079 
	C292.406464,349.144470 289.960754,349.477264 287.187805,349.589661 
z"/>
<path fill="#555B68" opacity="1.000000" stroke="none" 
	d="
M287.398346,307.832428 
	C286.831757,307.158447 286.518646,306.316620 286.311096,305.134430 
	C286.828369,305.750916 287.240082,306.707733 287.398346,307.832428 
z"/>
<path fill="#5F6470" opacity="1.000000" stroke="none" 
	d="
M301.770630,301.090271 
	C301.706360,301.274323 301.302185,301.392792 301.169800,301.228943 
	C301.303253,301.012146 301.569092,300.959167 301.770630,301.090271 
z"/>
<path fill="#555B68" opacity="1.000000" stroke="none" 
	d="
M285.828979,301.042419 
	C285.792450,301.238739 285.343018,301.339081 285.175415,301.181122 
	C285.293701,300.964142 285.579620,300.905121 285.828979,301.042419 
z"/>
<path fill="#5E636F" opacity="1.000000" stroke="none" 
	d="
M299.460358,341.942749 
	C299.798187,341.979218 299.971130,342.251831 300.062531,342.769958 
	C299.752502,342.736664 299.523987,342.457764 299.460358,341.942749 
z"/>
<path fill="#5E636F" opacity="1.000000" stroke="none" 
	d="
M284.480652,348.826233 
	C284.632935,348.669769 284.973358,348.737793 285.009033,348.907806 
	C284.805939,349.046112 284.567169,349.014404 284.480652,348.826233 
z"/>
<path fill="#0C0D0F" opacity="1.000000" stroke="none" 
	d="
M250.130219,334.494354 
	C249.230042,339.893280 246.049347,340.959961 241.253571,339.962860 
	C241.253571,330.301086 241.253571,320.592285 241.253571,310.856079 
	C247.755997,309.136505 250.092758,310.838745 250.172058,317.575134 
	C250.236664,323.064392 250.179840,328.555084 250.130219,334.494354 
z"/>
<path fill="#1D1F26" opacity="1.000000" stroke="none" 
	d="
M345.140991,330.928375 
	C345.429993,329.223846 345.718994,327.519318 346.334778,325.452087 
	C347.197906,325.160461 347.734314,325.231476 348.270691,325.302521 
	C348.803406,328.681946 349.336121,332.061340 349.923981,335.790497 
	C347.869659,335.790497 346.297028,335.790497 344.507141,335.790497 
	C344.655487,334.643799 344.779236,333.687561 345.152100,332.309265 
	C345.444519,331.766174 345.554352,331.617310 345.517792,331.529419 
	C345.428131,331.314117 345.270966,331.126892 345.140991,330.928375 
z"/>
<path fill="#737882" opacity="1.000000" stroke="none" 
	d="
M348.431427,324.953308 
	C347.734314,325.231476 347.197906,325.160461 346.388977,325.086243 
	C346.306885,323.080505 346.497375,321.077972 346.687866,319.075409 
	C347.044769,319.079773 347.401672,319.084106 347.758575,319.088440 
	C348.036438,320.926971 348.314301,322.765533 348.431427,324.953308 
z"/>
<path fill="#737882" opacity="1.000000" stroke="none" 
	d="
M344.997559,331.192505 
	C345.270966,331.126892 345.428131,331.314117 345.517792,331.529419 
	C345.554352,331.617310 345.444519,331.766174 345.221191,331.957581 
	C344.978790,331.837463 344.916473,331.647034 344.997559,331.192505 
z"/>
</svg>